<svg id="Grupo_10" data-name="Grupo 10" xmlns="http://www.w3.org/2000/svg" xmlns:xlink="http://www.w3.org/1999/xlink" width="117" height="117" viewBox="0 0 117 117">
  <defs>
    <clipPath id="clip-path">
      <rect id="Rectángulo_19" data-name="Rectángulo 19" width="117" height="117" fill="#644c26"/>
    </clipPath>
  </defs>
  <g id="Grupo_9" data-name="Grupo 9" clip-path="url(#clip-path)">
    <path id="Trazado_37" data-name="Trazado 37" d="M0,58.645A58.5,58.5,0,1,1,58.56,117,58.244,58.244,0,0,1,0,58.645m1.948-.208c.014,31.045,25.5,56.592,56.488,56.614S115.043,89.5,115.051,58.54A56.851,56.851,0,0,0,58.541,1.948C27.562,1.894,1.933,27.475,1.947,58.437" transform="translate(0 0)" fill="#644c26"/>
    <path id="Trazado_38" data-name="Trazado 38" d="M223.94,406.212c-14.724-8.883-29.574-8.247-44.52-.7.171-6.909,9.912-12.878,21.592-13.23,11.543-.349,22.348,6.18,22.928,13.929" transform="translate(-143.148 -312.968)" fill="#644c26"/>
    <path id="Trazado_39" data-name="Trazado 39" d="M46.079,254.128c2.539,5.181,5.517,10.2,7.466,15.6,1.321,3.656-.926,7.262-4.168,9.049a8.843,8.843,0,0,1-10.047-.959c-2.962-2.531-4.222-6.516-2.458-10,2.341-4.62,5.194-8.981,7.827-13.453l1.381-.236m-.8,3.417c-2.335,3.929-4.45,7.2-6.262,10.626a6.563,6.563,0,0,0,1.853,8.2,6.736,6.736,0,0,0,10.194-8.279c-1.715-3.371-3.63-6.641-5.785-10.548" transform="translate(-28.773 -202.753)" fill="#644c26"/>
    <path id="Trazado_40" data-name="Trazado 40" d="M98.415,139.835c8.637,1.221,14.65-2.58,20.091-7.98.666,3.534-1.861,6.935-6.413,9.1-5.931,2.827-10.414,2.675-13.679-1.125" transform="translate(-78.519 -105.199)" fill="#644c26"/>
    <path id="Trazado_41" data-name="Trazado 41" d="M387.1,139.14c-2.985,3.422-6.641,2.512-10.088,1.5-4.982-1.456-8.936-4.211-9.913-10.033,5.809,4.878,11.834,9.1,20,8.529" transform="translate(-292.887 -104.206)" fill="#644c26"/>
    <path id="Trazado_42" data-name="Trazado 42" d="M154.785,206.841c0,7.525-3.827,13.625-8.549,13.625s-8.549-6.1-8.549-13.625,3.828-13.625,8.549-13.625,8.549,6.1,8.549,13.625" transform="translate(-109.853 -154.155)" fill="#644c26"/>
    <path id="Trazado_43" data-name="Trazado 43" d="M374.448,206.841c0,7.525-3.827,13.625-8.549,13.625s-8.549-6.1-8.549-13.625,3.828-13.625,8.549-13.625,8.549,6.1,8.549,13.625" transform="translate(-285.108 -154.155)" fill="#644c26"/>
  </g>
</svg>
