<svg id="regalo" xmlns="http://www.w3.org/2000/svg" xmlns:xlink="http://www.w3.org/1999/xlink" width="132.564" height="147.949" viewBox="0 0 132.564 147.949">
  <defs>
    <clipPath id="clip-path">
      <rect id="Rectángulo_13" data-name="Rectángulo 13" width="132.564" height="147.949" fill="#644c26"/>
    </clipPath>
  </defs>
  <g id="Grupo_4" data-name="Grupo 4" clip-path="url(#clip-path)">
    <path id="Trazado_36" data-name="Trazado 36" d="M132.564,142.87c-3.172.562-6.327,1.254-9.519,1.666-38.755,5-77.463,4.349-116.143-.935-2.977-.407-4.257-1.547-4.683-4.6C-.837,117.078-.167,95.09.875,73.1c.347-7.323,1.186-14.623,1.548-21.947.157-3.163,1.4-4.4,4.538-4.464,7.832-.154,15.674-.323,23.487-.861,8.65-.6,17.272-1.606,25.906-2.436q-.129-1.314-.259-2.629c-5.436.664-10.867,1.381-16.311,1.976-4.739.517-9.7,1.981-14.2,1.128A21.631,21.631,0,0,1,8.369,18.125C10.954,6.27,23.195-1.532,35.435.84A26.814,26.814,0,0,1,53.592,13.032c2.862,4.475,5.208,9.289,7.649,14.022,2.127,4.126,4.064,8.351,6.548,13.488,1.426-3.542,2.437-6.208,3.564-8.825,5.2-12.06,12.234-22.6,24.4-28.695,12.909-6.467,25.562-2.325,31.6,10.212,7.692,15.971-4,33.278-21.7,31.668-5.742-.523-11.341-2.541-17.028-3.766-4.334-.934-8.495-.811-12.317,2.777,3.586,1.118,6.779,1.9,9.805,3.105,5.636,2.245,9,6.187,8.5,12.645-.292,3.783.83,6,5.262,5.862,11.6-.351,15.235,4.525,11.92,15.739,1.34.9,2.776,1.741,4.07,2.759,4.741,3.733,5.064,7.381,1.126,11.825-6.609,7.455-6.782,9.219-1.756,17.908-8.585-.137-12.766-5.789-9.7-13.578,1.971-5,1.407-8.387-3.78-11.048-4.438-2.277-4.448-4.719-1.743-8.962.923-1.448,1.728-4.171,1.008-5.151-.827-1.126-3.392-1.209-5.226-1.309-3.13-.171-6.277,0-9.417.024.452-2.972.531-6.066,1.451-8.886,1.184-3.629.609-6.171-2.876-7.892-2.521-1.245-5.034-2.508-8.146-4.06,3.737,30.855.533,60.808-6.535,90.505-8.939-31.24-9.372-62.827-4.063-95.754-6.913,0-13.557-.6-19.976.345-2.069.3-4.491,4.481-5.006,7.215-.457,2.421.94,5.731,2.554,7.865,1.99,2.63,6.642,4,4.581,8.293-2.078,4.335-6.354,2.153-9.874,2.137a42.753,42.753,0,0,0-6.5.928,60.372,60.372,0,0,0,3.058,6.327c.665,1.068,2.037,1.682,3.048,2.55,4.994,4.286,4.907,6.805-.323,10.989a10.992,10.992,0,0,0-1.213,1.312c.122.559.086.976.276,1.173,1.509,1.56,3.061,3.077,4.6,4.608-1.913,1.466-3.781,3-5.75,4.383-2.091,1.473-4.277,2.81-6.574,4.307-1.853-2.2-1.683-2.492,3.347-4.77,2.477-1.121,4.89-2.384,8.071-3.947-1.614-1.08-2.251-1.536-2.916-1.947-3.774-2.338-3.928-3.992-.616-6.735,4-3.315,3.98-4.482.067-8.03C34.99,82.759,32.629,81,31.116,78.7c-2.609-3.963-.616-7.348,4.113-7.3,2.475.026,4.949.9,7.412.847a6.425,6.425,0,0,0,4.17-1.876c.394-.422-.582-2.753-1.489-3.661-7.642-7.639-7.917-8.843-3.479-18.354H4.585C2.393,71.52.9,93.924,2,116.43c.326,6.654,1.084,13.286,1.548,19.936.233,3.354,1.248,5.217,5.189,5.738a436.759,436.759,0,0,0,92.779,2.86c10.249-.828,20.458-2.144,30.686-3.237q.179.571.358,1.143m-59.59-97.9c3.736-4.94,8.214-6.712,13.464-5.82,5.4.917,10.663,2.609,16.037,3.711,9.5,1.947,18.826-2.118,23.2-9.9,4.222-7.513,2.765-17.427-3.609-24.556C115.9,1.5,107.516-.31,98.4,3.781A42.142,42.142,0,0,0,88.3,10.113C78.889,18.2,73.537,28.894,70.14,40.589a5.963,5.963,0,0,0,1.8,5.069c4.578,3.615,9.442,6.89,14.362,10.04,3.661,2.344,4.925,5.242,3.263,9.306A16.8,16.8,0,0,0,88.4,67.758c-.327,1.565-.415,3.179-.6,4.773,1.562.082,3.126.246,4.685.211.81-.018,1.653-.664,2.411-.552,2.586.382,5.815.189,7.549,1.674,2.536,2.173,1.163,5.176-1.015,7.438-2.247,2.333-1.939,4.248.669,6.177,7.475,5.532,7.528,5.608,4.453,14.632-1.493,4.382.11,6.9,4.727,8.908-2.718-6.942-.008-11.756,4.3-16.234,3.565-3.7,3.242-6.425-.89-9.505-1.823-1.358-3.89-2.389-6.153-3.753,3.293-3.508,3.755-7.219,1.478-11.11-2.24-3.824-5.712-3.828-9.625-3.285-5.357.742-7.613-1.4-7.4-7.189.214-5.906-2.521-9.531-7.785-11.4-3.749-1.327-7.64-2.255-12.227-3.581m-6.1-.88c.124-.295.438-.688.343-.87-5.265-10.157-9.88-20.748-16.162-30.235-2.926-4.418-8.687-7.793-13.876-9.694-9.609-3.521-19.466.742-24.622,9.161C7.889,20.078,8.6,28.883,14.623,35.527c6.055,6.68,13.575,8.9,22.176,6.173,10.147-3.213,19.907-3.681,29.168,2.552.181.122.594-.1.912-.166m3.029,94.446c.659-1.984,1.006-2.733,1.155-3.521,4.453-23.477,6.575-47.129,5.078-71.026a57.491,57.491,0,0,0-1.615-11.834c-.433-1.552-2.951-2.521-4.52-3.755-.89,1.3-2.354,2.505-2.586,3.913-4.673,28.4-3.87,56.665,2.488,86.223" fill="#644c26"/>
  </g>
</svg>
