<svg id="vestuario" xmlns="http://www.w3.org/2000/svg" xmlns:xlink="http://www.w3.org/1999/xlink" width="420.329" height="170" viewBox="0 0 420.329 170">
  <defs>
    <clipPath id="clip-path">
      <rect id="Rectángulo_12" data-name="Rectángulo 12" width="420.329" height="170" fill="#644c26"/>
    </clipPath>
  </defs>
  <g id="Grupo_2" data-name="Grupo 2" clip-path="url(#clip-path)">
    <path id="Trazado_5" data-name="Trazado 5" d="M75.343,69.912a16.8,16.8,0,0,1-.365,3.439c-.091.306-1.708.6-1.876.36a7.067,7.067,0,0,1-1.333-3.038,14.109,14.109,0,0,1,.388-3.456l-.894-.741c-1,.975-2.343,1.787-2.9,2.97-.592,1.25-.436,2.854-.607,4.3L66.413,73.7c0-1.438.04-2.879-.01-4.316-.06-1.722,1.71-4.376-2.2-4.257-.468.015-1.123-1.411-1.447-2.262A50.394,50.394,0,0,0,59.625,55.5a3.371,3.371,0,0,0-.067,1.21C67.763,80.566,71.71,105.424,76.829,130c2.61,12.531,4.9,25.128,7.5,37.661.636,3.059-.428,4.565-3.179,5.4-3.115.949-6.182,2.056-9.316,2.933-1.731.485-3.469.481-3.738-2.005,1.091.34,2.227,1.077,3.266.959,11.233-1.271,12.861-3.536,10.566-14.349-.05-.236-.07-.478-.12-.714C75.576,130.4,69.4,100.9,63.042,71.44c-1.052-4.881-2.873-9.594-4.44-14.714-1.791.93-2.966,1.5-4.1,2.137a50.508,50.508,0,0,1-5.249,3c-3.059,1.263-6.241,2.228-9.371,3.319-.633.395-1.839.836-1.81,1.176.242,2.932.706,5.845,1.1,8.764l1.227-.166q-.283-4.91-.566-9.82c2.983,2.416,2.721,6.175,2,8.868-1.26,4.7-.225,9.043.254,13.508.588,5.478.657,11.18,2.317,16.344,6.2,19.3,12.956,38.414,19.519,57.593.653,1.906,1.412,3.776,2.115,5.643l15.017-4.309.462,1.5c-2.385,1.017-4.733,2.137-7.166,3.025s-4.961,1.546-7.543,2.334l1.325,4.394a30.375,30.375,0,0,1-2.75-4.89Q54.08,136.282,42.924,103.367a8.656,8.656,0,0,0-.863-1.2c-.741,6.688-1.512,12.8-2.079,18.935q-2.247,24.328-4.341,48.67c-.222,2.52-.27,5.055-.457,7.58-.2,2.684-1.86,3.8-4.371,3.754-1.561-.028-3.117-.292-4.678-.393-8.925-.581-9.047.243-9.408-10.048q-1.652-47.062-3-94.136A93.11,93.11,0,0,1,14.09,66.4c.149-1.889-.2-3.311-2.293-3.151-1.836.139-3.211,1.08-2.517,3.4a5.653,5.653,0,0,1,.1,2.158c-.413,3.874-2.889,4.931-6.193,2.679,5.064.327,6.206-1.172,4.236-5.833-2.463,1.208-4.58,2.568-4.276,5.8.125-1.449-.12-3.08.478-4.3.58-1.182,2.024-1.938,4-3.695L0,60.812v-.726c1.073.093,2.36-.163,3.183.34,3.424,2.092,6.9,3.172,11.039,1.213-.337-3.38,2.338-3.044,4.808-2.968,13.133.4,25.259-3.518,37.18-8.481a3.55,3.55,0,0,1,3.2,1.313c1.43,2.762,2.344,5.786,3.582,8.656.54,1.253.075,3.746,2.984,2.766.249-.083,1.3,2.231,2.082,3.608a12.875,12.875,0,0,1,2.492-.778c2.125-.253,3.241.537,2.709,2.914-.285,1.274-.349,2.6-.513,3.9l1.247.377,1.348-3.03M15.3,64.635c-.268,4.5-.815,8.586-.7,12.652.678,24.62,1.494,49.237,2.294,73.854.172,5.309.5,10.612.686,15.921.083,2.373,1.035,3.447,3.553,3.395a70.532,70.532,0,0,1,8.291.49c4.855.475,4.871.523,5.593-4.421.227-1.549.322-3.119.461-4.681,1.364-15.383,2.8-30.761,4.052-46.154.583-7.185,1.547-14.461.981-21.588-.675-8.528-2.767-16.947-4.357-25.392a2.782,2.782,0,0,0-1.694-1.9c-6.162-.806-12.348-1.431-19.156-2.177M34.389,173.668,18.46,172.68c-.74,5.586-.491,5.981,4.582,6.722a41.509,41.509,0,0,0,5.023.4c5.99.143,6.155-.039,6.325-6.133M37.106,60.776l.646,1.94,10.207-1.561.961-2.016c-.912-.419-1.949-1.353-2.715-1.168-3.079.747-6.073,1.84-9.1,2.8m20.42-7.051c-1.953.715-3.373,1.233-4.79,1.754a3.694,3.694,0,0,0-1.314.536,2.989,2.989,0,0,0-1,1.615A1.75,1.75,0,0,0,51.45,58.9c1.3.464,5.412-2.724,6.077-5.175M32.73,61.21c-1.451.077-2.881.152-4.31.232-.24.014-.547-.036-.706.091a5.317,5.317,0,0,0-1.375,1.358c-.122.216.26.914.587,1.161,2.128,1.612,5.261.1,5.8-2.842M22.622,62.985q.124-.9.249-1.8L16.4,60.741q-.075.664-.151,1.329l6.368.914" transform="translate(0 -13.745)" fill="#644c26"/>
    <path id="Trazado_6" data-name="Trazado 6" d="M570.778,64.58c-4.705.824-5.448,4.4-5.324,9.249-4.655-3.386-8.632-1.334-12.782-.514-1.944.385-5.616-.2-5.969-1.224-.667-1.938.5-4.507.9-6.813-1.154,7.554.208,8.615,7.65,6.479,2.6-.748,5.406-.793,8.8-1.252.808-2.674,1.7-6.669,6.723-6.651Z" transform="translate(-150.449 -17.513)" fill="#644c26"/>
    <path id="Trazado_7" data-name="Trazado 7" d="M418.29,31.212c-.9,7.172-5.056,10.091-11.982,8.352-3.627-.91-7.19-2.134-10.856-2.811-1.76-.324-3.692.294-5.546.485q.014.56.029,1.12c3.16,1.031,6.424,1.823,9.452,3.153a43.719,43.719,0,0,1,9.784,5.328c5.285,4.211,4.411,10.652-1.515,13.917a14.892,14.892,0,0,1-3,1.25c-5.774,1.682-5.75,1.665-5.843,7.553-.295,18.664-4.315,36.644-9.941,54.336-3.7,11.628-7.47,23.238-10.838,34.962-1.087,3.783-3,5.492-6.741,5.582-1.418.034-2.832.25-5.111.464l3.66-26.89-4.5,7.21a4.144,4.144,0,0,1,.153-1.422q9.282-18.209,18.641-36.38a4.041,4.041,0,0,1,2.5-1.986c-.407.931-.757,1.893-1.231,2.788-3.116,5.868-6.175,11.77-9.412,17.571-5.273,9.448-6.217,19.959-7.657,30.357a7.692,7.692,0,0,0-.14,1.8c.194,1.885-2.215,4.5,1,5.518a6.18,6.18,0,0,0,7.5-4.267c5.969-20.146,12.517-40.15,17.582-60.524,2.592-10.428,2.6-21.517,3.519-32.328.121-1.429-1.275-2.988-1.969-4.486q-.465-1-.932-2.006c.841-.042,1.881-.426,2.488-.07a9.313,9.313,0,0,0,11.734-1.4c3.324-3.185,3.74-7.377.038-10.006-4.154-2.95-8.985-5-13.668-7.122-2.556-1.156-5.416-1.638-8.733-2.6l3.947-3c-1.107-.415-2.015-.839-2.968-1.1q-16.922-4.658-33.856-9.276c-.813-.223-1.625-.458-2.423-.726-2.085-.7-4.248-1.951-3.357-4.272a6.2,6.2,0,0,1,4.451-3.079c6.116-.6,12.3-.451,18.423-1.039,2.435-.234,4.761-1.645,7.127-2.543.444-.168.941-.732,1.252-.628,3.817,1.267,6.05-1.772,8.957-3.076,2.084-.935,3.087-2.135,2.966-4.349l1.076-1.083c2.454,5.242-2.379,6.733-4.542,8.688,1.758,2.5,2.964,4.914,4.806,6.656,2.342,2.216,5.248,3.822,7.815,5.816a11.749,11.749,0,0,1,3.51,4.263c-4.848-3.679-11.88-4.435-14.28-11.319-.944-2.709-8.881-3.833-11.166-2.121a10.317,10.317,0,0,1-5.124,2.044c-6.5.47-13.02.558-19.529.887a22.18,22.18,0,0,0-3.807.857l-.026,1.123c1.163.425,2.3.935,3.493,1.261,12.8,3.5,25.65,6.841,38.4,10.506,5.664,1.628,11.126,3.949,16.725,5.816a10.337,10.337,0,0,0,3.3.051c-.251-2.107-.433-3.628-.615-5.149l4.161,2.175,2.81-4.836" transform="translate(-95.773 -1.232)" fill="#644c26"/>
    <path id="Trazado_8" data-name="Trazado 8" d="M247.23,34.765l-3.307,3.69-3.312-6.445-1.287.083L231.7,56.127c2.126-.657,3.334-.939,4.465-1.406,1.148-.473,2.22-1.129,3.326-1.7-.228,1.248-.456,2.5-.746,4.087l3.852,1.324c-.236,2.248-.478,4.561-.772,7.359l-3.87-2.981c-.351,1.631-.595,2.767-.912,4.246l3.542-.6-.681,2.523L253.088,79.91l-10.247-6.934c2.19,9.636,5.645,18.4,6.111,27.8-4.6-9.1-6.681-18.878-7.937-28.624-3.3-.736-6.36-1.269-9.325-2.127-2.242-.648-3.3.083-4.107,2.147-1.287,3.3-2.813,6.51-4.315,9.935l-5.656-3.41-3.472,3.951-1.977-2.263c2.981,1.181,3.484-1.375,4.586-2.786-3.035-2.873-5.913-5.643-8.883-8.311-.217-.194-1.1.36-1.678.566l-.536-.441c1.265-2.652,3.492-2.806,6.1-2.72a25.764,25.764,0,0,0,7.234-.813c3.211-.833,5.9-1.369,9.1.883,2.476,1.74,6.079,1.872,8.465,2.523a49.6,49.6,0,0,1,.676-6.656c.07-.317,2.175-.187,3.877-.3-.051-.694.217-2.74-.285-2.952-2.568-1.082-6.188-3.155-7.867-2.176-4.252,2.478-8.449,1.8-12.58,1.367a87.183,87.183,0,0,1-14.456-3.2,4.328,4.328,0,0,1-2.479-3.158c-.3-8.085-.3-16.18-.386-24.273a19.8,19.8,0,0,1,.05-3.261c1.139-7.246,2.27-14.5,3.6-21.71.193-1.047,1.414-1.9,2.852-2.77.1,9.279,1.363,17.357,12.915,18.817l-.72,1.161c-.755.119-1.594.512-2.249.308a48.469,48.469,0,0,1-6.768-2.51c-2.191-1.058-4.06-.582-4.916,1.363a22.717,22.717,0,0,0-2.28,8.26c-.17,7.121.344,14.256.348,21.386,0,2.592.662,4.163,3.387,4.5,6.2.772,12.4,1.594,18.6,2.373,2.183.274,3.2-.827,3.818-2.89,1.891-6.37,4.477-12.584,5.76-19.064.749-3.78-.319-7.978-.972-11.922-.1-.631-2.328-1.281-3.567-1.271-2.147.017-4.283.708-6.437.793a6.846,6.846,0,0,1-3.882-1.376c5.653-.62,11.183-1.033,14.724-6.153-.8,1.553-1.6,3.1-2.046,3.978,1,2.158,2.113,3.832,2.531,5.665.4,1.764.087,3.691.087,5.547,1.512-6.892,2.687-13.607,3.729-20.343a9.224,9.224,0,0,0-.568-2.986c3.035.1,1.831,2.141,1.577,3.616-.831,4.823-1.578,9.67-2.676,14.434-1.156,5.016,2.514,8.234,4.089,12.358l3.191-1.478m-38.048,33.7,8.415,7.757c2.1-3.5,3.882-6.459,5.862-9.755l-14.277,2m-2.9-49.873,5.2-2.854c-1.028-4.222-2.135-8.764-3.241-13.306l-.382-.038c-.538,5.519-1.075,11.038-1.578,16.2M218.9,76.32l3.164,2.24c4.453-6.691,5.117-9.9,2.342-11.324L218.9,76.32M205.065,38.743l-.509.078c0,4.216-.093,8.434.068,12.644.038.994.719,2.6,1.455,2.834,7.637,2.478,15.409,4.254,22.929,3.553-6.609-1.138-13.74-2.375-20.875-3.588-2.266-.386-3.219-1.575-3.113-3.973.17-3.843.046-7.7.046-11.549" transform="translate(-55.887 -0.054)" fill="#644c26"/>
    <path id="Trazado_9" data-name="Trazado 9" d="M125.273,57.439l8.808-6.722-.107-1.086c-2.176.265-4.514.112-6.491.885-3.581,1.4-6.955,3.34-10.4,5.086-2.336,1.184-4.492,2.015-7.1.216-.725-.5-2.652.75-4.026,1.2,1.573-2.051,3.131-4.115,4.792-6.093.048-.057,1.679.774,1.7,1.228.043,1-.475,2.021-.933,3.629a13.32,13.32,0,0,0,3.544-.469c3.516-1.588,7.564-2.692,10.283-5.2,5.154-4.762,11.48-6.942,17.534-9.835q11.378-5.436,22.654-11.089a25.661,25.661,0,0,0,4-3.1q-.2-.567-.408-1.134a24.109,24.109,0,0,0-3.679.027c-6.428,1-12.829,2.19-19.272,3.085a8.974,8.974,0,0,1-5.158-.652c-3.75-2.008-10.429.957-11.085,5.1a6.843,6.843,0,0,1-1.552,3.469c-4.134,4.4-8.4,8.674-12.67,12.938a13.246,13.246,0,0,1-2.417,1.55l-.7-.878c1.734-1.753,3.5-3.473,5.195-5.267a110.741,110.741,0,0,0,7.509-8.275c1.237-1.611,1.527-3.918,2.577-5.717A33.712,33.712,0,0,1,131.518,26a40.4,40.4,0,0,1-4.072-1.748c-2.437-1.361-3.8-3.447-3.027-6.3a5.249,5.249,0,0,1,5.684-4.08c2.582.067,4.1,1.432,4.093,4.594a25.507,25.507,0,0,1-2.318-1.454c-1.846-1.442-3.487-.959-4.679.721-1.448,2.039-.143,3.8,1.623,4.3,3.108.882,5.8,4.388,9.584,1.883a1.186,1.186,0,0,1,1.052-.02c6.33,3.98,12.561-.054,18.826-.267,3.112-.106,6.2-1.032,9.307-1.079,1.255-.019,3.247,1.07,3.6,2.1.37,1.079-.556,2.907-1.416,4.018-.753.972-2.17,1.466-3.348,2.063-11.291,5.721-22.593,11.419-34.376,17.367l5.182,2.426-11.96,6.912" transform="translate(-29.169 -3.804)" fill="#644c26"/>
    <path id="Trazado_10" data-name="Trazado 10" d="M513.419,31.3c-4.192-2.261-8.38-4.531-12.583-6.771a13.634,13.634,0,0,0-1.817-.668,7.953,7.953,0,0,0-.586,1.912c-.116,2.4.2,4.865-.233,7.2-1.8,9.813,2.353,18.143,6.177,26.616,1.275,2.825,2.171,5.82,3.241,8.737-3.032-6.546-6.264-13.01-9-19.677a23.18,23.18,0,0,1-1.763-9.112c.166-6.741,1.5-13.269-2.252-19.852-2.011-3.527-1.56-8.444-2.311-12.718a35.464,35.464,0,0,0-1.169-3.978l-1.276.094c-.374,1.3-.839,2.572-1.1,3.889-.773,3.851-2.763,6.9-6.559,7.964-3.244.913-3.842,2.5-3.139,5.534.678,2.922,1.221,6.142-3.53,6.683.448,3.6.861,6.918,1.32,10.607,4.225-1.722,5.38.517,5.551,3.783.194,3.708,2.06,7.593-.994,11.014V41.667c-4.035-.538-5.81-3.025-6.016-6.83-.15-2.761-.357-5.521-.411-8.284-.016-.791.193-2.094.675-2.306,3.173-1.4,2.405-4.02,2.057-6.382-.328-2.219.589-2.946,2.593-3.391,4.662-1.034,7.09-4.125,7.612-9.281l-1.331,1.1c.342-2.131-.341-4.891,2.794-5.463,3.312-.6,4.547.616,5.106,4.324q1.05,6.962,2.334,13.887a17.911,17.911,0,0,0,1.39,3.415l.916-.1a23.516,23.516,0,0,1,1.2-5c.564-1.188,1.88-2.019,2.862-3.008.554,1.357,1.752,2.846,1.508,4.039-.355,1.736-1.749,3.259-3,5.379L513.419,31.3m-12.6-9.908c3.718-2.492,3.924-3.873.959-5.941-.317,1.968-.593,3.673-.959,5.941" transform="translate(-130.754 -0.186)" fill="#644c26"/>
    <path id="Trazado_11" data-name="Trazado 11" d="M358.874,172.048l-2.388,6.169c-7.15-2.33-9.018-4.536-8.466-11.187,2.043-24.623,3.894-49.275,6.729-73.811.772-6.682,4.666-13.025,7.294-19.455a33.22,33.22,0,0,1,3.174-4.994l-3.49-3.02,4.549,1.3a9.844,9.844,0,0,0,.861-1.639c1.679-5.639,1.67-5.644,7.559-4.7,6.074.976,12.126,2.135,18.229,2.872,3.784.457,3.994,2.594,3.6,5.558-.381,2.893-1.211,4.748-4.784,4.06-6.862-1.323-13.811-2.195-20.654-3.6-3.218-.661-5.143-.16-7.088,2.784a58.839,58.839,0,0,0-9.447,28.2q-2.792,33.581-5.647,67.157c-.439,5.233.439,6.389,6.743,9l3.222-4.7M368.09,68.23c8.009,1.364,15.7,2.636,23.383,4,3.357.6,3.621-1.658,4.128-4,.61-2.812-1.146-3.273-3.189-3.6-6.53-1.052-13.084-1.978-19.579-3.216-3.182-.605-4.5.459-4.521,3.557-.007.826-.109,1.653-.223,3.258" transform="translate(-95.783 -16.522)" fill="#644c26"/>
    <path id="Trazado_12" data-name="Trazado 12" d="M472.782,12.441c-5.47,5.649-13.9,4.291-19.6-2.98a5,5,0,0,0-3.592-1.741c-1.7.075-2.376,1.333-2.173,3.371.61,6.1.767,12.248,1.331,18.356.253,2.736.523,5.682,1.7,8.083,4.333,8.839,3.683,17.856,2.409,27.229-3.138,23.087-5.785,46.24-8.618,69.368-1.278,10.424-2.521,20.852-3.808,31.276-.16,1.3-.5,2.568-.9,4.579l-2.554-2.209c1.828.356,2.1-.674,2.283-2.217,1.544-12.826,3.192-25.639,4.778-38.46,2.963-23.968,6.043-47.923,8.719-71.923A28.894,28.894,0,0,0,451.109,43.2c-2.1-6.254-3.613-12.41-3.38-19.1.149-4.292-.71-8.646-1.381-12.93-.395-2.524.464-3.706,2.775-4.59,2.287-.875,3.383-.194,4.7,1.709,4.711,6.789,9.1,7.661,18.955,4.151" transform="translate(-120.296 -1.702)" fill="#644c26"/>
    <path id="Trazado_13" data-name="Trazado 13" d="M334.437,60.1,320.344,71.49l6.588,8.553-1.169.983c-2.778-2.644-5.8-5.087-8.236-8.016a9.1,9.1,0,0,1-2.131-5.946c.33-3.6-1.932-5.084-4.236-6.359-2.2-1.217-4.814-1.678-7.246-2.47.7-.337,1.758-1.152,2.031-.941,3.277,2.531,5.906-.307,8.681-1.083a6.379,6.379,0,0,0,3.16-2.933c.284-.481-.688-2.459-1.281-2.554a11.95,11.95,0,0,0-4.184.578,6.574,6.574,0,0,0-1.487.745l-.928-.884c.986-1.069,1.78-2.555,3-3.123a5.416,5.416,0,0,1,7.122,3.149,5.533,5.533,0,0,1-3.264,7.085c-1.25.533-2.555.938-3.145,1.151,1.069,2.87,1.9,5.311,2.885,7.686.933,2.246,2.324,3.783,4.945,2.071,1.593-1.041,3.131-2.166,5.192-3.6-1.343-.571-2.3-.737-2.879-1.3a2.559,2.559,0,0,1-.744-2.129c.2-.55,1.686-1.266,1.877-1.1,3.582,3.221,6.417-.3,9.543-.956" transform="translate(-83.666 -13.054)" fill="#644c26"/>
    <path id="Trazado_14" data-name="Trazado 14" d="M436.571,177.565c-.417-1.2-1.328-2.457-1.178-3.576,4.842-35.969,9.957-71.9,14.52-107.908.637-5.023-1.112-10.435-2.232-15.564-.659-3.018-2.252-5.832-3.426-8.739a20.614,20.614,0,0,1,2.508,3.319c4.5,9.354,4.883,19.011,3.38,29.269-4.861,33.169-9.15,66.422-13.627,99.647a23.12,23.12,0,0,0,.055,3.552" transform="translate(-119.857 -11.459)" fill="#644c26"/>
    <path id="Trazado_15" data-name="Trazado 15" d="M185.066,100.339c-2.164-1.175-4.932-2.075-2.163-5.216l-5.891-2.162a29.049,29.049,0,0,0,1.73-2.78c.9-1.949,1.23-3.7-1.553-4.5a3.7,3.7,0,0,1-2.265-1.626c-.391-.936-.088-2.162-.085-3.263,1.049.142,2.305-.025,3.1.5a14.653,14.653,0,0,1,2.6,3.083c2.642-1.7,3.549-3.777,2.732-6.588,2.451,1.195,1.454,3.039.665,4.583-1.673,3.27-3.558,6.432-5.655,10.175l7.183,1.843-2.375,2.735c2.935,2.934,10.77-.56,14.78-6.437l.534.439q-.076,2.187-.151,4.375c-1.323.439-2.661.84-3.966,1.326-3.081,1.147-6.146,2.335-9.218,3.505" transform="translate(-48.101 -21.336)" fill="#644c26"/>
    <path id="Trazado_16" data-name="Trazado 16" d="M264.44,60.563l-3.4-3.935,5.718-4.279L264.751,50.9l2.417-3.663-4.006.015,3.925-1.642c.435,1.275,1.392,2.632,1.208,3.809-.619,3.951,1.244,5.288,4.784,5.762,6.25.837,12.466,1.925,18.7,2.908-1.262.372-2.6,1.213-3.776,1.035-4.612-.7-9.152-1.871-13.766-2.559-3.164-.472-6.4-.434-9.611-.623q-.092.617-.186,1.234l13.983,8.948C274,63.8,269.56,61.521,265.2,59.091a3.59,3.59,0,0,1-1.81-2.322c-.032-.755,1.083-1.558,1.454-2.033-3.69.644-3.84,1.663-.4,5.828" transform="translate(-71.862 -12.51)" fill="#644c26"/>
    <path id="Trazado_17" data-name="Trazado 17" d="M539.424,59.565a2.5,2.5,0,0,1,.009-.715c1.774-5.677.559-7.249-6.193-7.593.479,5.088-.355,9.763-4.842,12.978a23.678,23.678,0,0,0,1.79-3.486,40.139,40.139,0,0,0,1.837-7.141,3.3,3.3,0,0,0-1.776-2.616,9.217,9.217,0,0,0-11.96,10.133,35.767,35.767,0,0,0,1.294,4.48,8.861,8.861,0,0,1,2.524-14.4c2.38-1.064,5.067-1.438,8.21-2.287l-5.394-6.088c.447.14,1.034.145,1.32.441,3.735,3.868,7.77,6.973,13.165,8.573,3.538,1.049,3.3,3.89.014,7.72" transform="translate(-142.302 -11.747)" fill="#644c26"/>
    <path id="Trazado_18" data-name="Trazado 18" d="M151.445,80.819l-1.168,6.688-6.437-1.521c.545,1.61.947,2.782,1.339,3.958,2.829,8.5.346,17.984-6.125,23.4-5.863,4.91-14.8,3.182-18.077-3.494,2.61,1.638,5.032,3.846,7.872,4.787,4.8,1.59,9.629-.769,12.845-5.8,4.337-6.788,4.969-13.926,1.341-21.276-.415-.841-.823-1.686-1.224-2.51.353-.241.607-.52.715-.472,4.321,1.927,7.523,1.242,8.921-3.761" transform="translate(-33.304 -22.166)" fill="#644c26"/>
    <path id="Trazado_19" data-name="Trazado 19" d="M119.969,112.612c-3.044-2.858-3.045-6.4-2.482-10.187a29.373,29.373,0,0,0-.1-5.1,27.708,27.708,0,0,0,3.137-1.523c1.327-.852,2.544-1.875,3.808-2.825l-4.993,6.348c3.866,1.205,6.823,2.534,9.907,2.978,3.284.472,4.828-1.514,4.555-4.858-.394-4.838-3.5-6.286-9.512-4.429,2-2.753,4.59-2.788,7.278-1.355a7.626,7.626,0,0,1,3.284,8.125c-.982,3.151-3.448,3.987-6.256,3.446-3.01-.581-5.918-1.7-9.206-2.679-2.213,3.963-.57,8.009.579,12.062" transform="translate(-32.264 -24.882)" fill="#644c26"/>
    <path id="Trazado_20" data-name="Trazado 20" d="M349.64,61.907l-3.673-1.821c.467-1.555.965-3.1,1.391-4.668.47-1.723.529-3.671,1.41-5.133a8.32,8.32,0,0,1,3.754-2.851c.428-.189,2.252,1.236,2.2,1.814a17.033,17.033,0,0,1-1.5,4.3,5.007,5.007,0,0,0,.363-1.74A25.92,25.92,0,0,0,352.7,48.7c-.965.559-2.416.893-2.8,1.721a39.788,39.788,0,0,0-1.784,6.085l1.007.326,4.132-3.316c-.611.981-1.013,2.239-1.874,2.888a4.393,4.393,0,0,0-1.745,5.506" transform="translate(-95.243 -13.005)" fill="#644c26"/>
    <path id="Trazado_21" data-name="Trazado 21" d="M405.5,3.261l-1.076,1.083c-2.965-2.395-3.123-2.407-8.13-.642l-.659-.775c1.341-.957,2.565-2.405,4.05-2.761,2.558-.615,4.7.509,5.816,3.1" transform="translate(-108.915 0)" fill="#644c26"/>
    <path id="Trazado_22" data-name="Trazado 22" d="M179.328,75.034c-2.587-.4-5.384-1.6-7.711-1-3.073.8-5.778,3.016-8.641,4.623,2.583-5.987,10.705-7.789,16.352-3.626" transform="translate(-44.866 -19.959)" fill="#644c26"/>
    <path id="Trazado_23" data-name="Trazado 23" d="M363.71,67.387H362.03l-2.765,4.764-4.308-2.994,4.39,1.966c1.475-5.841,1.475-5.841,4.361-3.735" transform="translate(-97.718 -18.13)" fill="#644c26"/>
    <path id="Trazado_24" data-name="Trazado 24" d="M471.88,73.341a14.206,14.206,0,0,0,1.678.8c1.855.61,2.564,1.958.923,3.1-2.131,1.479-1.77,3.055-1.294,5.021.454,1.87.541,3.828.963,5.707.189.845.683,2.179,1.239,2.29,3.042.607,3.292,3.015,3.5,5.254.673,7.2,1.389,14.408,1.57,21.626.043,1.745-1.909,3.539-2.943,5.31l-.831-.387c.842,5.34,1.663,10.684,2.563,16.014a2.009,2.009,0,0,0,1.039,1.279c1.862.806,3,2.1,1.529,3.822-.505.591-2.444-.046-3.936-.135.176-.536.015-.172.054-.148,5.4,3.194,3.748,8.854,4.727,13.578.833,4.021-.189,8.51,3.241,11.928.31.309-1.1,2.352-1.716,3.589l-.875-.264c.365.873.751,1.738,1.091,2.621,1.926,5.01,1.441,5.453-3.378,7.768-6.085,2.923-12.332,4.964-19.063,5.092-3.954.075-7.918-.423-11.88-.63-1.188-.062-2.384-.009-3.576-.009l-.135,1.394c2.123.316,4.237.74,6.37.932,10.8.974,21.16-.131,30.651-6.1a6.557,6.557,0,0,1,5.4-.115c3.081,1.463,5.732.651,8.712-.036a44.792,44.792,0,0,1,10.186-1.055c6.7.03,12.912-1.333,18.447-5.251,2.242-1.586,4.476-3.183,7.17-5.1-3.307-8.669-6.5-17.771-10.223-26.649-7.43-17.709-15.16-35.292-22.735-52.941a26.691,26.691,0,0,1-.972-3.439c1.252,2.438,2.679,4.8,3.73,7.326q15.061,36.14,30,72.332c.588,1.422.962,2.933,1.338,4.1-3.063,2.086-5.756,4.051-8.575,5.813a29.561,29.561,0,0,1-20.033,4.53c-2.591-.329-5.453.472-8.027,1.281-3.211,1.009-6.107,1.633-9.428.062a6.586,6.586,0,0,0-5.279.576c-11.174,6.622-23.2,6.671-35.472,4.939-.917-.129-1.653-1.545-2.473-2.363,1.048-.47,2.092-1.335,3.144-1.345,6.248-.056,12.6.8,18.717-.052,5.373-.747,10.539-3.213,15.671-5.237.792-.312,1.4-2.4,1.231-3.535a14.548,14.548,0,0,0-1.994-4.6c-1.094-1.982-2.239-3.867.031-5.81a1.336,1.336,0,0,0,.5-.924c-.652-6.109-1.286-12.221-2.115-18.306-.1-.723-1.454-1.2-1.965-1.96-.631-.943-1.668-2.381-1.355-3.068,2.457-5.378-.1-10.406-.8-15.541-.38-2.766-2.089-5.785,2.477-6.847.525-.122.953-2.112.816-3.155-.1-.737-1.2-1.364-1.9-1.994-.906-.819-1.852-1.594-2.781-2.388l4.23-2.753c-.4-4.228-.905-9.571-1.428-15.1-2.8,1.042-3.991,0-4.376-2.84-.646-4.767-1.74-9.474-2.392-14.24-.162-1.185.648-2.5,1.011-3.76" transform="translate(-122.55 -20.115)" fill="#644c26"/>
    <path id="Trazado_25" data-name="Trazado 25" d="M178.957,150.519l6.819-8.887,1.062.507c.25,3.66.538,7.317.743,10.98.552,9.876,1.044,19.756,1.61,29.631.357,6.241,1.024,7.643,7.166,7.527,7.764-.147,15.514-1.577,23.226-2.75.623-.1,1.423-2.552,1.254-3.79-1.416-10.4-3.059-20.759-4.595-31.138q-2.833-19.147-5.589-38.3c-.2-1.365-1.042-3.3,1.758-2.946q-.05,2.152-.1,4.3a38.509,38.509,0,0,0,.157,4.336c1.755,12.045,3.517,24.09,5.392,36.117.491,3.149,1.386,6.235,2.094,9.35q1.234,10,2.467,20c-.831,1.081-1.537,2.963-2.513,3.116-7.6,1.189-15.237,2.43-22.907,2.885-6.463.382-8.221-1.458-8.681-7.85-.841-11.681-1.426-23.379-2.1-35.072-.075-1.3-.01-2.613-.01-4.986l-7.257,6.974" transform="translate(-49.266 -30.527)" fill="#644c26"/>
    <path id="Trazado_26" data-name="Trazado 26" d="M224.982,115.665q.051-2.151.1-4.3c1.2,6.493,2.6,12.959,3.563,19.488,2.561,17.3,4.948,34.617,7.373,51.932.341,2.43.958,4.225,4.06,3.465,8.306-2.033,16.684-3.786,24.938-6.01,6.3-1.7,6.64-2.314,4.54-8.665-3.787-11.448-7.915-22.781-11.9-34.164a9.8,9.8,0,0,1-.7-4.72l3.932,3.006-2.881-.6c1.3,3.508,2.594,6.809,3.738,10.161,3.116,9.131,6.3,18.241,9.2,27.444,1.744,5.55,1.223,6.628-4.293,8.1-9.305,2.476-18.736,4.477-28.081,6.808-2.138.533-2.8-.638-3.472-2.133q-1.234-10-2.468-20c-1.116-7.845-2.16-15.7-3.366-23.532-1.349-8.768-2.844-17.514-4.276-26.27" transform="translate(-61.936 -30.543)" fill="#644c26"/>
    <path id="Trazado_27" data-name="Trazado 27" d="M299.452,162.265c2.834,1.505,5.724,2.914,8.488,4.54,3.4,2,6.7,4.187,10.606,6.645,1.106-4.57,4.694-7.837,3.513-12.657a9.554,9.554,0,0,1,1.6.7c5.263,3.547,5.27,3.559,2.737,9.4-.93,2.145-1.935,4.257-3.182,6.99l-3.833-3.293,3.34,1.028c4.433-6.394,5.069-9.973,2.182-11.1q-2.758,5.073-5.493,10.107l-19.957-12.367" transform="translate(-82.437 -44.1)" fill="#644c26"/>
    <path id="Trazado_28" data-name="Trazado 28" d="M188.161,108.849c3.411,9.788,2.533,19.736,1.075,29.7-.043.292-.42.536-1.137,1.4a33.629,33.629,0,0,1-.7-4.5c-.054-7.129.036-14.258-.075-21.386-.014-.917-.9-1.821-1.383-2.73l2.215-2.481m.8,6.768-.616-.138V135.6l.616,0Z" transform="translate(-51.19 -29.854)" fill="#644c26"/>
    <path id="Trazado_29" data-name="Trazado 29" d="M278.743,73.8a18.568,18.568,0,0,1,2.986,1.091Q299.9,85.23,318.013,95.657a8.991,8.991,0,0,1,1.524,1.425,18.594,18.594,0,0,1-2.987-1.094Q298.721,85.83,280.945,75.582a17.559,17.559,0,0,1-2.2-1.777" transform="translate(-76.736 -20.242)" fill="#644c26"/>
    <path id="Trazado_30" data-name="Trazado 30" d="M135.475,200.136l4-2.886c4.731-4.878,9.436-9.781,14.211-14.616a36.9,36.9,0,0,1,3.554-2.835c-6.425,6.946-12.829,13.912-19.344,20.774-.31.327-1.591-.271-2.419-.438" transform="translate(-37.296 -49.313)" fill="#644c26"/>
    <path id="Trazado_31" data-name="Trazado 31" d="M137.424,199.2c-1.662-1.605-3.383-3.156-4.966-4.836a40.06,40.06,0,0,1-2.649-3.486l-1.844,1.434,3.665-5.488a24.477,24.477,0,0,0,1.291,4.46c1.36,2.71,2.987,5.285,4.5,7.916" transform="translate(-35.228 -51.239)" fill="#644c26"/>
    <path id="Trazado_32" data-name="Trazado 32" d="M328.909,101.444l2.729.321c.077-.165.154-.33.231-.495-5.267-3.036-10.548-6.05-15.791-9.128a34.172,34.172,0,0,1-3.109-2.31c6.412,3.476,12.845,6.916,19.2,10.495.514.29.489,1.539.715,2.342l-3.974-1.224" transform="translate(-86.158 -24.638)" fill="#644c26"/>
    <path id="Trazado_33" data-name="Trazado 33" d="M305.306,85.476,284.967,73.832l20.339,11.644" transform="translate(-78.45 -20.25)" fill="#644c26"/>
    <path id="Trazado_34" data-name="Trazado 34" d="M145.34,161.316c-1.249,2.268-2.327,4.654-3.784,6.779-2.744,4.005-5.707,7.86-8.579,11.777l12.363-18.556" transform="translate(-36.608 -44.244)" fill="#644c26"/>
    <path id="Trazado_35" data-name="Trazado 35" d="M166.422,132.781l-10.46,14.95,10.46-14.95" transform="translate(-42.935 -36.417)" fill="#644c26"/>
  </g>
</svg>
