<?xml version="1.0" standalone="no"?>
<!DOCTYPE svg PUBLIC "-//W3C//DTD SVG 20010904//EN"
 "http://www.w3.org/TR/2001/REC-SVG-20010904/DTD/svg10.dtd">
<svg version="1.0" xmlns="http://www.w3.org/2000/svg"
 width="713.000000pt" height="475.000000pt" viewBox="0 0 713.000000 475.000000"
 preserveAspectRatio="xMidYMid meet">

<g transform="translate(0.000000,475.000000) scale(0.100000,-0.100000)"
fill="#000000" stroke="none">
<path d="M1914 4176 c-10 -8 -16 -18 -11 -22 4 -4 7 -2 7 5 0 7 4 10 9 7 5 -3
14 1 21 9 16 19 0 19 -26 1z"/>
<path d="M2215 4153 c20 -84 38 -133 46 -128 26 16 -5 137 -39 150 -11 4 -13
-1 -7 -22z"/>
<path d="M2346 4114 c-9 -8 -16 -12 -16 -7 0 4 -5 0 -11 -10 -6 -10 -8 -21 -5
-24 3 -4 6 0 6 8 0 11 2 11 8 1 6 -9 14 -4 30 18 24 31 15 41 -12 14z"/>
<path d="M1380 4060 c-15 -71 -8 -200 12 -229 14 -20 14 -20 32 0 11 14 23 18
34 14 9 -4 40 -9 67 -12 28 -2 57 -7 65 -10 8 -4 36 -7 61 -9 26 -1 67 -12 92
-23 25 -12 50 -21 55 -21 5 0 9 37 9 83 -1 45 2 103 7 130 l7 47 -56 0 c-66 0
-92 -12 -108 -48 -7 -15 -23 -44 -37 -65 -22 -33 -29 -37 -55 -33 -16 3 -63 9
-104 12 l-74 7 5 109 c3 59 5 108 3 108 -1 0 -8 -27 -15 -60z"/>
<path d="M2627 4103 c-3 -5 3 -38 13 -73 10 -36 19 -60 20 -55 0 6 8 1 16 -10
l16 -20 -5 20 c-3 11 -8 36 -11 55 -7 39 -41 97 -49 83z"/>
<path d="M2878 4029 c-10 -5 -18 -7 -18 -3 0 4 -9 -5 -20 -19 -11 -14 -20 -30
-20 -36 0 -19 36 5 60 39 23 33 23 34 -2 19z"/>
<path d="M3138 4004 c-4 -5 0 -34 7 -64 7 -30 16 -67 19 -82 4 -19 11 -26 21
-22 18 7 18 17 4 83 -11 52 -41 102 -51 85z"/>
<path d="M1886 3992 c-6 -11 -21 -114 -18 -126 2 -5 -2 -12 -8 -16 -16 -10 4
-121 32 -179 12 -25 21 -50 20 -55 -2 -4 3 -14 9 -22 15 -18 39 -1 39 28 0 13
6 18 17 16 23 -4 36 -73 29 -152 -2 -32 0 -70 5 -84 6 -16 6 -29 -2 -38 -8
-10 -8 -18 -1 -27 7 -8 8 -26 3 -47 -9 -40 -7 -188 3 -197 10 -10 7 -51 -4
-58 -6 -3 -7 -41 -4 -93 3 -48 7 -127 8 -176 2 -73 6 -91 21 -102 15 -11 16
-17 7 -26 -15 -15 -16 -68 -1 -68 15 0 0 -63 -17 -73 -9 -5 -11 -14 -5 -25 4
-9 13 -33 20 -52 9 -29 9 -37 -4 -46 -19 -14 -19 -44 0 -44 8 0 15 -4 15 -10
0 -5 -7 -10 -15 -10 -19 0 -19 -7 -1 -26 11 -10 12 -22 6 -46 -5 -17 -7 -42
-4 -54 4 -15 -2 -34 -15 -53 -12 -16 -21 -33 -21 -39 0 -5 -7 -15 -15 -22 -12
-10 -24 -9 -59 4 -25 9 -50 23 -56 31 -6 8 -24 12 -41 10 -20 -3 -32 1 -36 10
-7 19 -21 19 -55 1 -35 -19 -75 -8 -112 29 -24 24 -33 27 -68 22 -36 -5 -44
-2 -69 26 -16 17 -29 40 -29 49 0 18 -2 24 -32 84 -13 25 -13 35 -3 55 17 31
8 119 -11 119 -15 0 -18 12 -7 24 4 3 8 43 10 89 2 45 4 89 5 97 1 27 -8 76
-17 90 -10 16 -7 82 3 90 13 9 7 97 -7 113 -11 14 -11 20 -1 32 7 9 10 28 5
52 -3 21 -2 50 3 63 7 18 5 33 -6 55 -10 20 -16 62 -17 123 -1 55 -6 97 -13
104 -16 16 -15 -70 7 -669 17 -458 20 -495 40 -535 36 -76 91 -99 438 -189
174 -45 191 -46 226 -19 30 24 43 25 115 4 42 -12 66 -26 92 -55 51 -56 110
-80 353 -144 298 -77 314 -79 355 -34 l19 20 84 -21 c72 -19 87 -26 104 -53
37 -57 96 -82 359 -152 137 -37 272 -69 300 -72 45 -5 55 -2 83 21 l32 27 90
-23 c79 -20 92 -27 113 -57 37 -55 107 -86 318 -141 107 -28 218 -57 245 -65
134 -40 224 -39 239 2 4 10 15 14 36 11 17 -3 30 -1 30 4 0 4 -9 8 -20 8 -15
0 -20 7 -20 25 0 20 5 25 25 25 16 0 25 6 25 16 0 8 -5 12 -10 9 -31 -19 -32
50 -15 785 13 573 20 738 30 750 8 8 17 27 20 43 8 32 19 33 122 13 40 -7 70
-10 67 -5 -3 5 -1 9 5 9 5 0 13 -5 16 -10 4 -6 15 -8 25 -5 10 3 21 1 25 -5 3
-5 21 -10 38 -10 18 0 43 -7 56 -16 19 -14 22 -23 18 -53 -3 -20 -3 -28 -1
-18 10 34 20 16 21 -40 0 -32 -4 -64 -11 -72 -9 -12 -8 -13 6 -8 14 5 17 -1
20 -31 l3 -37 5 42 c3 23 2 39 -1 37 -4 -2 -9 16 -11 41 -4 51 -1 55 12 23 13
-33 11 -2 -4 69 -12 58 -11 64 6 83 10 11 15 20 10 20 -5 0 -17 -9 -26 -19
-16 -17 -21 -18 -69 -6 -29 7 -64 16 -78 19 -18 4 -29 15 -33 31 -4 14 -10 25
-15 25 -5 0 -9 49 -9 108 0 113 -5 134 -56 207 -27 39 -38 46 -51 35 -7 -6
-47 -2 -104 10 -51 10 -116 22 -146 25 l-53 7 -11 -51 c-6 -29 -11 -69 -11
-91 0 -38 13 -60 25 -41 6 11 36 3 47 -13 4 -6 41 -11 84 -12 86 -2 103 -13
142 -88 16 -29 18 -41 9 -51 -9 -10 -16 -8 -32 11 -24 28 -47 31 -65 9 -11
-13 -17 -10 -46 24 -31 35 -121 91 -149 91 -31 0 -33 -121 -3 -178 10 -19 9
-25 -2 -32 -12 -7 -11 -12 4 -29 39 -43 63 31 31 93 -18 35 -6 57 20 36 11 -9
14 -22 9 -46 -5 -27 -3 -34 9 -34 9 0 19 -4 22 -10 18 -30 21 -180 4 -191 -10
-6 -10 -16 1 -48 10 -33 11 -43 0 -56 -7 -8 -9 -22 -5 -32 10 -22 6 -76 -5
-83 -5 -3 -5 -23 0 -45 5 -22 5 -42 1 -45 -9 -6 -8 -86 2 -96 13 -13 7 -40
-12 -61 -11 -12 -17 -24 -14 -27 4 -3 6 -50 5 -104 0 -54 3 -104 8 -112 4 -7
2 -27 -6 -45 -13 -33 -8 -71 16 -116 5 -10 4 -31 -2 -52 -9 -29 -8 -38 5 -51
14 -14 14 -19 1 -46 -9 -16 -19 -30 -24 -30 -14 0 -5 -67 13 -94 15 -23 15
-25 -7 -41 -25 -19 -25 -55 0 -55 8 0 14 -5 14 -11 0 -6 -9 -8 -20 -4 -25 8
-26 -3 -3 -20 16 -12 16 -18 5 -59 -6 -26 -12 -57 -12 -71 0 -14 -3 -25 -7
-25 -5 0 -17 -20 -28 -45 -24 -56 -46 -58 -130 -15 -32 17 -73 30 -91 30 -20
0 -34 6 -38 16 -4 11 -13 14 -29 10 -48 -14 -64 -16 -109 -10 -29 4 -48 12
-48 19 0 25 -51 48 -96 42 -43 -4 -73 10 -56 28 4 5 1 5 -6 1 -17 -10 -52 26
-52 52 0 10 -7 27 -15 38 -8 10 -15 29 -15 41 0 12 -4 25 -10 28 -15 9 -12 41
4 54 10 9 14 30 13 67 -2 44 -5 54 -19 54 -10 0 -18 7 -18 15 0 8 7 15 15 15
18 0 19 12 4 27 -6 6 -8 17 -4 23 4 7 9 37 12 68 2 31 9 62 14 68 7 9 7 19 -1
34 -6 11 -10 28 -9 38 2 9 -2 27 -9 38 -7 14 -8 32 -3 52 5 17 7 33 3 36 -3 3
1 6 9 6 12 0 13 12 9 63 -3 34 -9 68 -14 75 -4 7 -3 18 3 25 5 7 11 41 12 75
2 44 6 62 16 62 17 0 17 17 0 27 -22 14 -33 57 -30 118 6 95 4 140 -7 143 -14
5 -12 21 5 38 16 17 20 44 6 44 -15 0 -19 39 -5 51 8 6 14 18 14 25 0 8 7 14
15 14 8 0 15 7 15 15 0 9 -6 12 -16 8 -14 -5 -15 0 -9 38 4 24 13 52 19 61 11
16 14 15 39 -7 32 -30 44 -31 52 -4 10 30 -2 83 -25 109 -11 13 -20 29 -20 36
0 19 19 27 35 14 8 -6 19 -9 25 -5 5 3 16 3 23 -2 6 -4 32 -9 57 -11 24 -1 50
-8 57 -14 7 -6 27 -8 44 -4 17 3 38 2 47 -3 9 -5 31 -10 47 -12 17 -2 37 -9
46 -16 9 -8 39 -16 68 -20 56 -6 61 0 42 50 -8 21 -18 26 -70 32 -34 4 -64 11
-67 17 -4 6 19 7 64 2 l70 -6 7 48 c3 27 10 68 14 92 5 23 6 44 2 46 -3 2 -39
9 -78 16 -40 7 -73 17 -73 22 0 10 -94 1 -131 -13 -15 -6 -33 -26 -43 -47 -31
-64 -71 -121 -82 -118 -6 2 -37 7 -68 11 l-57 7 3 89 c2 59 0 85 -7 78 -5 -5
-10 -61 -10 -124 0 -99 3 -117 21 -142 11 -15 24 -41 27 -58 l7 -30 -22 26
c-13 15 -32 31 -44 37 -30 16 -44 76 -44 188 0 109 -16 148 -62 150 -13 1 -81
13 -152 28 -172 35 -172 35 -180 -11 -3 -21 -6 -57 -6 -80 0 -25 -5 -43 -11
-43 -20 0 0 -108 36 -193 6 -14 4 -16 -10 -11 -15 6 -16 4 -5 -15 16 -32 44
-23 48 16 2 25 7 30 22 26 25 -7 30 -23 36 -112 3 -52 1 -77 -7 -82 -10 -6
-10 -17 0 -50 9 -29 10 -44 3 -47 -7 -2 -9 -22 -5 -51 3 -27 1 -56 -5 -66 -6
-13 -6 -28 0 -47 7 -19 7 -33 1 -39 -6 -6 -6 -32 -1 -67 8 -57 -3 -102 -25
-102 -5 0 -4 -7 3 -15 7 -9 12 -48 12 -102 1 -49 5 -96 10 -106 6 -12 5 -23
-3 -33 -16 -20 -4 -105 19 -122 11 -9 13 -15 6 -20 -6 -4 -15 -21 -18 -39 -6
-24 -3 -34 9 -40 19 -11 11 -61 -12 -70 -15 -6 -12 -43 9 -97 10 -24 9 -30 -5
-38 -21 -11 -22 -48 -2 -48 8 0 15 -5 15 -11 0 -6 -7 -9 -15 -5 -17 6 -21 -19
-5 -29 13 -8 13 -62 0 -70 -6 -4 -8 -23 -5 -46 5 -34 4 -38 -11 -32 -12 4 -15
3 -10 -6 5 -7 1 -20 -7 -29 -7 -9 -17 -25 -20 -34 -4 -10 -12 -18 -20 -18 -24
0 -119 37 -127 50 -5 8 -19 11 -39 7 -22 -5 -33 -2 -39 10 -8 14 -16 14 -55 5
-60 -16 -106 -5 -135 30 -21 25 -31 29 -72 27 -42 -2 -52 2 -79 28 -17 18 -31
38 -31 45 0 8 -7 23 -15 34 -8 10 -15 29 -15 41 0 12 -4 25 -10 28 -15 9 -12
42 6 70 9 14 12 30 8 37 -4 7 -7 25 -6 40 2 19 -2 28 -13 28 -20 0 -19 26 1
34 11 4 13 10 7 19 -6 6 -8 41 -5 77 7 88 4 181 -7 194 -9 12 -3 86 8 86 12 0
12 94 0 123 -8 18 -8 31 -1 40 5 6 9 38 7 70 -2 43 1 57 11 57 19 0 18 17 -1
28 -18 10 -39 133 -28 166 10 33 4 78 -14 98 -15 16 -15 18 0 18 23 0 33 41
13 52 -20 11 -21 44 -1 52 8 3 12 12 9 21 -4 10 0 15 10 15 9 0 16 5 16 10 0
6 -7 10 -15 10 -12 0 -14 8 -9 43 4 23 13 49 20 57 12 12 16 11 34 -8 12 -12
27 -22 35 -22 20 0 31 49 16 71 -6 10 -11 28 -11 39 0 11 -7 20 -15 20 -17 0
-21 35 -5 45 6 3 16 3 22 -1 14 -9 35 -12 96 -15 27 -1 46 -7 51 -17 8 -13 15
-14 45 -5 20 6 36 8 36 3 0 -4 19 -10 41 -13 23 -3 45 -10 49 -17 3 -6 30 -13
58 -17 l52 -6 2 92 c1 50 2 101 2 113 1 24 -19 31 -126 45 -86 10 -111 0 -152
-66 l-36 -59 -37 9 c-21 4 -59 11 -85 14 l-48 6 -1 67 c-1 62 -2 65 -11 32
-16 -56 -4 -158 25 -213 14 -26 23 -55 20 -63 -4 -12 -8 -10 -17 7 -17 34 -36
35 -36 2 l-1 -28 -15 28 c-8 16 -13 34 -11 40 2 6 -2 32 -10 56 -7 24 -13 84
-13 132 l0 87 -87 20 c-130 30 -265 54 -271 48 -3 -3 -7 -28 -10 -56 -2 -27
-9 -50 -15 -50 -18 0 3 -110 38 -194 7 -16 5 -18 -8 -13 -20 7 -22 -4 -5 -21
19 -19 28 -14 39 18 12 33 33 39 44 13 12 -28 14 -256 2 -270 -6 -9 -6 -17 1
-25 6 -8 7 -30 3 -53 -7 -46 -6 -151 4 -201 3 -20 1 -43 -7 -56 -7 -13 -11
-27 -9 -33 6 -18 14 -225 10 -273 -1 -16 5 -43 14 -60 12 -25 13 -40 5 -68 -7
-28 -6 -39 6 -53 14 -15 13 -20 -4 -49 -20 -32 -18 -68 4 -123 4 -9 0 -21 -9
-29 -20 -17 -19 -47 3 -53 16 -4 16 -5 0 -6 -21 -1 -22 -10 -3 -35 12 -16 12
-23 0 -52 -7 -18 -11 -41 -8 -52 5 -20 -36 -101 -59 -115 -14 -9 -109 28 -116
45 -2 4 -18 8 -36 8 -18 0 -37 5 -44 12 -9 9 -21 9 -49 0 -45 -13 -113 -5
-113 13 0 23 -44 43 -88 39 -32 -3 -42 0 -42 11 0 8 -3 14 -7 14 -21 -3 -33 2
-33 16 0 8 -4 15 -10 15 -5 0 -10 8 -10 18 0 17 -17 61 -41 105 -8 14 -6 25 6
43 19 29 12 109 -11 118 -15 6 -20 36 -5 36 4 0 7 19 6 43 -2 23 1 65 6 92 6
33 5 68 -1 100 -16 74 -19 144 -5 139 12 -5 5 102 -9 124 -4 7 -3 18 2 25 6 7
10 37 9 67 -1 39 2 59 13 67 11 9 11 12 2 13 -21 0 -33 50 -33 135 0 44 -5 95
-10 112 -9 27 -7 36 6 50 16 15 16 18 1 28 -17 13 -22 55 -6 55 6 0 10 6 10
14 0 8 7 17 16 20 8 3 12 10 9 16 -4 6 -11 8 -16 4 -13 -7 -1 86 12 100 5 6
18 1 32 -12 29 -27 33 -27 47 -2 11 21 -8 109 -31 136 -9 11 3 12 68 7 43 -3
83 -9 89 -14 7 -5 25 -9 40 -8 44 1 107 -12 124 -26 8 -8 34 -15 58 -16 l43
-3 2 86 3 85 -49 12 c-90 21 -126 15 -163 -25 -19 -19 -34 -39 -34 -44 0 -4
-8 -6 -17 -4 -10 2 -44 8 -75 14 -56 11 -56 11 -63 53 -8 52 -25 97 -36 97 -5
0 -9 -9 -9 -19 0 -11 -4 -23 -10 -26 -5 -3 -10 -38 -10 -77 0 -52 5 -79 19
-102 23 -38 38 -106 23 -106 -6 0 -14 5 -17 10 -4 6 -15 8 -25 5 -31 -10 -45
68 -43 247 1 101 -2 118 -16 122 -29 9 -285 56 -303 56 -9 0 -19 -4 -22 -8z
m14 -162 c0 -5 -7 -10 -15 -10 -8 0 -15 5 -15 10 0 6 7 10 15 10 8 0 15 -4 15
-10z m128 -26 c17 -11 26 -13 36 -5 7 6 16 8 20 4 4 -4 22 -8 41 -9 39 -1 70
-31 80 -77 8 -34 -2 -49 -16 -24 -11 19 -44 23 -54 7 -13 -21 -54 -10 -76 21
-12 17 -44 44 -70 61 -27 16 -49 32 -49 34 0 11 68 2 88 -12z m-118 -48 c0 -8
14 -23 30 -33 32 -18 34 -22 24 -48 -6 -14 -11 -11 -35 15 -16 17 -29 35 -29
40 0 5 -3 15 -6 24 -3 9 -1 16 5 16 6 0 11 -6 11 -14z m1021 -132 c13 -12 22
-13 37 -5 11 6 22 7 26 3 4 -3 22 -7 41 -8 35 -1 63 -26 93 -82 23 -46 7 -57
-29 -21 -19 19 -22 19 -44 5 -30 -20 -45 -14 -92 34 -84 84 -88 90 -68 90 10
0 26 -7 36 -16z m-738 -31 c3 -5 7 -152 11 -328 3 -176 8 -390 11 -475 3 -85
7 -279 11 -430 3 -151 10 -286 15 -299 5 -13 8 -25 6 -27 -2 -2 -32 5 -68 15
-82 23 -89 48 -11 43 33 -3 52 0 52 7 0 6 -6 11 -14 11 -8 0 -17 8 -20 18 -3
10 -19 22 -34 28 l-29 11 -7 304 c-4 167 -11 470 -17 672 -6 203 -8 374 -6
381 3 9 15 12 31 9 15 -3 26 -1 26 5 0 37 31 76 43 55z m673 -59 c-3 -9 -6
-20 -6 -25 0 -6 -4 -7 -10 -4 -16 10 -12 45 6 45 11 0 14 -5 10 -16z m1031
-103 c12 -12 24 -16 30 -10 13 13 110 -1 132 -20 16 -14 61 -92 61 -106 0 -13
-28 -3 -45 15 -22 24 -33 25 -55 5 -15 -14 -23 -10 -80 45 -34 33 -71 62 -81
65 -11 4 -19 11 -19 16 0 16 35 10 57 -10z m-747 -72 c0 -36 -2 -41 -20 -36
-11 3 -18 1 -14 -4 3 -5 12 -9 20 -9 11 0 14 -21 14 -109 0 -68 -4 -112 -11
-117 -6 -3 -8 -17 -5 -30 4 -13 2 -24 -3 -24 -11 0 -3 -95 10 -121 4 -8 8
-103 9 -210 1 -107 2 -234 2 -284 2 -133 0 -306 -2 -340 -3 -41 7 -201 16
-247 l6 -37 -33 9 c-19 5 -53 14 -76 20 -30 7 -43 16 -43 28 0 16 9 18 68 15
62 -2 64 -1 30 8 -21 6 -38 17 -38 25 0 8 -11 18 -23 23 -23 9 -24 12 -30 207
-4 108 -7 426 -7 705 l0 508 38 3 c32 3 37 7 40 31 3 21 9 27 28 27 22 0 24
-4 24 -41z m713 -31 c5 -18 -3 -48 -14 -48 -5 0 -9 3 -9 8 0 4 -3 17 -6 30 -5
16 -2 22 9 22 8 0 17 -6 20 -12z m684 -35 c4 -12 -55 -4 -63 8 -3 5 10 7 27 5
18 -2 35 -8 36 -13z m-428 -94 c49 -10 50 -11 49 -45 -2 -43 -8 -48 -53 -35
-19 5 -35 6 -35 1 0 -5 14 -11 31 -15 26 -6 30 -10 25 -31 -5 -17 -2 -24 9
-24 19 0 19 -14 0 -30 -20 -17 -19 -37 3 -49 16 -9 16 -10 0 -16 -11 -5 -18
-18 -18 -35 0 -16 -5 -30 -12 -32 -24 -8 -28 -166 -4 -203 16 -25 20 -86 7
-119 -4 -12 0 -34 13 -59 17 -36 18 -41 4 -51 -17 -12 -17 -24 -3 -128 8 -65
6 -74 -13 -70 -11 3 -13 -3 -8 -22 3 -13 2 -28 -4 -31 -7 -4 -7 -12 0 -25 5
-10 10 -34 10 -53 0 -19 6 -40 14 -46 13 -11 10 -47 -9 -94 -4 -9 -2 -24 4
-31 9 -11 8 -23 -4 -51 -8 -21 -15 -46 -15 -56 0 -11 -5 -19 -11 -19 -7 0 -8
-7 -4 -17 4 -10 7 -25 8 -33 0 -8 4 -21 10 -27 6 -9 5 -18 -3 -28 -10 -13 -10
-19 4 -34 15 -16 15 -22 4 -40 -7 -12 -18 -21 -25 -21 -7 0 -13 -5 -13 -10 0
-14 40 7 57 29 10 13 12 8 13 -31 0 -25 3 -54 7 -64 7 -19 1 -18 -114 14 -48
13 -63 21 -63 35 0 16 6 17 45 11 50 -7 60 6 20 24 -14 6 -25 18 -25 27 0 8
-7 15 -15 15 -18 0 -19 148 -8 958 6 478 7 502 25 502 11 0 18 8 19 20 1 11 3
25 4 30 1 6 3 12 4 15 2 7 14 6 70 -6z m118 -29 c6 -16 9 -30 6 -30 -10 0 -41
45 -36 52 9 15 19 8 30 -22z"/>
<path d="M3125 1890 c-3 -5 -1 -10 4 -10 6 0 11 5 11 10 0 6 -2 10 -4 10 -3 0
-8 -4 -11 -10z"/>
<path d="M3275 3922 c-30 -44 -31 -52 -6 -45 11 3 31 22 44 42 23 34 23 37 6
38 -12 1 -29 -13 -44 -35z"/>
<path d="M3566 3903 c4 -16 11 -38 15 -51 5 -13 9 -36 9 -51 0 -35 24 -60 34
-35 18 48 -21 163 -57 164 -4 0 -4 -12 -1 -27z"/>
<path d="M3829 3828 c-28 -32 -39 -68 -19 -68 12 0 40 31 63 69 16 28 16 31 2
31 -9 0 -29 -15 -46 -32z"/>
<path d="M4110 3805 c5 -13 14 -53 20 -88 8 -46 16 -64 27 -64 13 0 15 11 10
64 -5 65 -27 113 -52 113 -11 0 -12 -5 -5 -25z"/>
<path d="M1345 3798 c-4 -10 -4 -43 -1 -75 2 -32 5 -104 5 -161 1 -75 4 -103
13 -100 20 7 35 38 21 46 -23 15 -12 82 14 82 8 0 13 6 10 13 -2 6 -10 11 -17
9 -9 -2 -10 9 -5 40 4 24 9 46 12 51 7 12 25 8 38 -10 17 -23 45 -9 45 22 0
26 -26 75 -39 75 -4 0 -6 -13 -3 -30 l4 -30 -31 16 c-17 9 -38 28 -45 42 -12
23 -15 24 -21 10z"/>
<path d="M4330 3768 c-30 -21 -78 -93 -68 -103 11 -12 53 26 80 73 16 28 28
52 25 52 -2 0 -19 -10 -37 -22z"/>
<path d="M4580 3742 c0 -7 -5 -10 -11 -6 -8 4 -8 1 -1 -12 6 -11 16 -47 22
-81 7 -35 16 -60 21 -57 5 3 9 -1 9 -8 0 -8 5 -6 11 5 14 24 -6 119 -31 149
-11 13 -19 17 -20 10z"/>
<path d="M1617 3702 c-24 -26 -31 -75 -17 -116 11 -33 30 -50 30 -26 0 6 4 10
9 10 4 0 6 -10 4 -22 -3 -19 7 -30 51 -58 64 -40 83 -76 60 -109 -30 -42 -83
-11 -120 70 -28 64 -44 46 -40 -48 2 -59 10 -72 33 -57 13 8 27 4 60 -14 54
-30 86 -24 109 20 20 39 12 98 -18 142 -27 38 -42 51 -91 77 -48 25 -65 60
-47 93 21 40 65 13 99 -60 12 -24 26 -44 31 -44 14 0 12 93 -2 111 -11 13
-104 49 -128 49 -4 0 -14 -8 -23 -18z m133 -53 c0 -5 -4 -9 -10 -9 -5 0 -10 7
-10 16 0 8 5 12 10 9 6 -3 10 -10 10 -16z m20 -41 c0 -10 -4 -18 -9 -18 -5 0
-11 8 -13 18 -3 11 0 19 8 19 8 0 14 -9 14 -19z m-100 -58 c0 -5 -5 -10 -11
-10 -5 0 -7 5 -4 10 3 6 8 10 11 10 2 0 4 -4 4 -10z m110 -100 c0 -11 -2 -20
-4 -20 -2 0 -6 9 -9 20 -3 11 -1 20 4 20 5 0 9 -9 9 -20z m-125 -60 c3 -5 1
-10 -4 -10 -6 0 -11 5 -11 10 0 6 2 10 4 10 3 0 8 -4 11 -10z"/>
<path d="M1222 3678 c-6 -18 -17 -82 -26 -143 -9 -60 -28 -184 -42 -275 -14
-91 -36 -239 -49 -330 -13 -91 -40 -264 -59 -385 -19 -121 -44 -285 -55 -365
-12 -80 -28 -185 -36 -235 -14 -85 -19 -174 -8 -147 2 6 9 10 14 6 5 -3 9 -2
9 3 0 4 7 51 15 103 8 52 19 127 25 165 6 39 15 95 20 125 10 55 60 387 105
695 25 172 66 442 89 595 8 52 18 115 21 140 4 25 9 53 11 63 10 32 -24 18
-34 -15z m-35 -360 c-3 -8 -6 -5 -6 6 -1 11 2 17 5 13 3 -3 4 -12 1 -19z"/>
<path d="M4901 3655 c-20 -22 -51 -78 -51 -94 0 -33 61 26 98 95 9 17 7 20 -9
20 -11 0 -28 -9 -38 -21z"/>
<path d="M5150 3638 c0 -24 27 -155 34 -167 25 -40 36 47 16 121 -11 37 -50
73 -50 46z"/>
<path d="M1716 3258 c-8 -33 -7 -78 2 -78 9 0 32 59 32 83 0 25 -27 21 -34 -5z"/>
<path d="M2540 3200 c-21 -12 -55 -19 -86 -20 -54 0 -81 -17 -70 -45 3 -8 16
-15 29 -15 34 0 93 -66 102 -115 4 -22 9 -157 10 -299 l3 -259 -28 -29 c-21
-20 -38 -28 -64 -28 -28 0 -36 -4 -36 -18 0 -23 27 -38 115 -62 39 -10 95 -26
125 -34 110 -31 159 -14 99 35 -82 67 -87 74 -93 130 -3 30 -8 160 -10 289 -4
215 -5 263 -3 385 1 52 -20 105 -42 105 -9 -1 -32 -9 -51 -20z m60 -74 c0 -13
6 -26 13 -29 6 -2 9 -8 5 -11 -3 -4 -16 2 -28 14 -21 21 -22 21 -35 3 -9 -11
-14 -13 -15 -5 0 7 -4 10 -10 7 -16 -10 -12 -25 8 -26 11 0 13 -2 4 -6 -13 -5
-62 33 -62 48 0 12 43 18 61 8 13 -6 22 -5 31 6 19 21 28 18 28 -9z m-10 -46
c0 -5 -4 -10 -9 -10 -6 0 -13 5 -16 10 -3 6 1 10 9 10 9 0 16 -4 16 -10z m20
-16 c0 -3 -5 -15 -11 -26 -8 -16 -8 -22 2 -29 7 -4 10 -11 7 -15 -4 -3 -14 1
-23 10 -9 9 -23 16 -31 16 -19 0 -14 32 5 38 10 3 12 -1 8 -14 -5 -15 -3 -14
9 4 15 20 34 30 34 16z m-40 -74 c0 -5 -2 -10 -4 -10 -3 0 -8 5 -11 10 -3 6
-1 10 4 10 6 0 11 -4 11 -10z m-4 -47 c-10 -10 -19 5 -10 18 6 11 8 11 12 0 2
-7 1 -15 -2 -18z m25 -126 c-7 -7 -14 -8 -21 -1 -6 6 -2 10 12 11 16 2 18 -1
9 -10z m8 -126 c9 -6 10 -10 2 -16 -8 -5 -6 -12 9 -25 26 -23 25 -30 -5 -30
-14 0 -25 -6 -26 -12 0 -7 -4 -3 -9 10 -6 13 -8 33 -6 45 3 12 5 25 5 30 1 9
13 9 30 -2z m31 -371 c0 -5 -4 -10 -9 -10 -6 0 -13 5 -16 10 -3 6 1 10 9 10 9
0 16 -4 16 -10z"/>
<path d="M1690 3108 c-6 -24 -17 -63 -24 -88 -8 -25 -22 -71 -31 -104 -11 -37
-14 -61 -8 -65 17 -10 26 -51 12 -51 -7 0 -10 3 -6 6 7 7 -17 34 -31 34 -15 0
-32 -25 -24 -36 8 -12 94 -36 101 -28 3 2 -3 18 -12 34 -21 35 -14 83 12 76 9
-2 30 -7 47 -11 47 -9 68 -63 38 -96 -16 -17 -15 -19 10 -29 31 -11 86 -14 86
-3 0 3 -7 14 -15 23 -15 16 -36 85 -86 275 -31 117 -51 134 -69 63z m34 -12
c-6 -16 -24 -23 -24 -8 0 10 22 33 27 28 2 -2 1 -11 -3 -20z m-17 -48 c-3 -8
-6 -5 -6 6 -1 11 2 17 5 13 3 -3 4 -12 1 -19z m43 -14 c0 -8 -5 -12 -10 -9 -6
4 -8 11 -5 16 9 14 15 11 15 -7z m-21 -51 c16 -58 14 -65 -16 -61 -32 3 -40
28 -24 71 14 37 28 34 40 -10z m37 -60 c-10 -10 -19 5 -10 18 6 11 8 11 12 0
2 -7 1 -15 -2 -18z m4 -33 c0 -5 -7 -7 -15 -4 -8 4 -15 8 -15 10 0 2 7 4 15 4
8 0 15 -4 15 -10z m30 -60 c0 -5 -2 -10 -4 -10 -3 0 -8 5 -11 10 -3 6 -1 10 4
10 6 0 11 -4 11 -10z m-180 -26 c0 -2 -7 -4 -15 -4 -8 0 -15 4 -15 10 0 5 7 7
15 4 8 -4 15 -8 15 -10z"/>
<path d="M4400 3138 c0 -8 9 -23 20 -33 18 -17 20 -31 20 -169 -1 -153 -8
-188 -38 -178 -9 3 -13 -2 -10 -14 2 -14 19 -22 73 -31 126 -24 150 -25 190
-14 76 21 113 74 122 172 8 87 -23 148 -103 205 -35 25 -68 42 -74 39 -6 -4
-16 -2 -23 3 -7 5 -30 12 -52 16 -128 19 -125 19 -125 4z m75 -28 c-3 -5 -12
-10 -18 -10 -7 0 -6 4 3 10 19 12 23 12 15 0z m35 -7 c-1 -13 -24 -38 -38 -40
-17 -4 -15 7 6 28 18 19 32 24 32 12z m104 -25 c-3 -4 5 -13 18 -18 89 -41
105 -249 25 -316 -41 -34 -70 -39 -114 -17 l-38 18 -1 145 c0 168 1 179 30
190 27 10 86 9 80 -2z m146 -244 c0 -2 -7 -4 -15 -4 -8 0 -15 4 -15 10 0 5 7
7 15 4 8 -4 15 -8 15 -10z m-280 -38 c0 -8 -4 -18 -10 -21 -5 -3 -10 3 -10 14
0 12 5 21 10 21 6 0 10 -6 10 -14z m-5 -46 c8 -13 -5 -13 -25 0 -13 8 -13 10
2 10 9 0 20 -4 23 -10z"/>
<path d="M3530 2970 c-20 -11 -55 -19 -82 -20 -94 0 -134 -43 -59 -63 36 -9
87 -56 101 -92 16 -41 15 -577 -1 -606 -14 -27 -75 -52 -106 -44 -17 4 -25 1
-30 -11 -9 -25 28 -51 95 -64 31 -7 71 -17 87 -22 65 -22 142 -37 183 -38 59
0 54 23 -15 70 -29 19 -58 49 -65 65 -10 23 -12 115 -10 413 3 337 1 386 -13
408 -19 29 -38 30 -85 4z m60 -68 c0 -10 5 -23 12 -30 6 -6 8 -15 3 -19 -4 -5
-10 -2 -12 5 -3 6 -11 12 -18 12 -18 0 -24 22 -11 37 16 18 26 16 26 -5z m-62
-4 c7 -7 12 -19 11 -27 0 -10 -2 -11 -5 -4 -3 7 -12 9 -20 6 -19 -7 -18 -23 1
-23 8 0 15 -4 15 -10 0 -18 -20 -11 -45 16 -31 33 -31 41 -2 47 12 2 24 5 28
6 3 0 10 -4 17 -11z m52 -55 c0 -8 -5 -13 -12 -11 -18 6 -21 25 -3 25 8 0 15
-7 15 -14z m16 -28 c-3 -8 -9 -22 -12 -30 -4 -9 -1 -15 7 -15 7 0 10 -2 7 -5
-2 -3 -19 2 -36 11 -33 16 -43 44 -16 44 9 0 12 -5 8 -12 -4 -7 2 -5 12 5 22
21 38 22 30 2z m-38 -64 c3 -8 -1 -12 -9 -9 -7 2 -15 10 -17 17 -3 8 1 12 9 9
7 -2 15 -10 17 -17z m2 -30 c0 -12 -20 -25 -27 -18 -7 7 6 27 18 27 5 0 9 -4
9 -9z m20 -141 c0 -5 -4 -10 -10 -10 -5 0 -10 5 -10 10 0 6 5 10 10 10 6 0 10
-4 10 -10z m0 -131 c11 -8 12 -12 2 -16 -8 -3 -5 -10 10 -22 23 -19 17 -46 -8
-37 -8 3 -17 -1 -20 -9 -11 -27 -19 -16 -18 23 1 77 4 82 34 61z m-45 -179 c3
-5 1 -10 -4 -10 -6 0 -11 5 -11 10 0 6 2 10 4 10 3 0 8 -4 11 -10z m65 -200
c0 -5 -4 -10 -10 -10 -5 0 -10 5 -10 10 0 6 5 10 10 10 6 0 10 -4 10 -10z"/>
<path d="M5174 2871 c1 -18 6 -31 14 -31 17 0 15 -27 -3 -34 -20 -7 -19 -33 2
-44 15 -9 15 -11 -4 -22 -13 -8 -18 -20 -16 -34 3 -13 -2 -28 -11 -35 -9 -8
-16 -29 -16 -47 0 -19 -5 -34 -11 -34 -7 0 -8 -7 -4 -17 4 -10 8 -37 10 -60 1
-24 8 -49 15 -57 8 -10 10 -36 6 -77 -3 -35 -1 -68 3 -73 17 -22 21 -77 7 -82
-9 -4 -13 -18 -11 -42 4 -59 17 -143 22 -139 3 4 19 89 82 447 6 30 13 130 16
221 l6 166 -29 6 c-17 3 -41 9 -54 12 -23 6 -25 4 -24 -24z"/>
<path d="M5490 2627 c4 -41 5 -41 8 -8 2 18 0 37 -5 42 -5 5 -6 -11 -3 -34z"/>
<path d="M1595 2610 c3 -5 16 -10 28 -10 12 0 29 -5 37 -11 12 -8 10 -9 -7 -4
-19 5 -23 2 -23 -18 0 -13 3 -26 6 -30 4 -3 6 -59 5 -124 -2 -107 -4 -120 -23
-134 -26 -20 -22 -23 79 -48 101 -26 118 -26 143 -1 31 31 27 87 -11 134 l-32
38 27 24 c36 34 35 83 -1 124 -21 23 -46 36 -102 51 -81 21 -136 25 -126 9z
m155 -46 c38 -26 50 -45 50 -80 0 -35 -22 -66 -43 -59 -7 2 -24 6 -39 9 -27 6
-28 9 -28 70 0 82 11 92 60 60z m-80 -14 c0 -5 -4 -10 -10 -10 -5 0 -10 5 -10
10 0 6 5 10 10 10 6 0 10 -4 10 -10z m98 -167 c29 -18 44 -56 40 -102 -3 -34
-5 -36 -44 -39 -26 -2 -45 2 -52 11 -16 18 -26 99 -18 132 5 21 11 25 29 20
12 -4 32 -14 45 -22z m-88 -83 c0 -5 -5 -10 -11 -10 -5 0 -7 5 -4 10 3 6 8 10
11 10 2 0 4 -4 4 -10z"/>
<path d="M5531 2524 c0 -11 3 -14 6 -6 3 7 2 16 -1 19 -3 4 -6 -2 -5 -13z"/>
<path d="M4490 2491 c0 -5 14 -19 30 -31 l31 -22 -3 -151 c-3 -149 -3 -152
-25 -155 -13 -2 -23 -9 -23 -17 0 -15 41 -30 108 -40 46 -7 55 4 20 27 -21 14
-22 20 -20 163 1 148 8 175 39 175 8 0 13 7 11 17 -5 24 -168 57 -168 34z
m100 -25 c0 -11 -19 -15 -25 -6 -3 5 1 10 9 10 9 0 16 -2 16 -4z m-10 -36 c0
-5 -4 -10 -10 -10 -5 0 -10 5 -10 10 0 6 5 10 10 10 6 0 10 -4 10 -10z m14
-28 c3 -5 2 -18 -1 -30 -5 -21 -6 -21 -19 -5 -7 10 -14 24 -14 31 0 13 26 17
34 4z"/>
<path d="M5542 2450 c0 -14 2 -19 5 -12 2 6 2 18 0 25 -3 6 -5 1 -5 -13z"/>
<path d="M5562 2330 c0 -14 2 -19 5 -12 2 6 2 18 0 25 -3 6 -5 1 -5 -13z"/>
<path d="M5537 2281 c-4 -17 -3 -21 5 -13 5 5 8 16 6 23 -3 8 -7 3 -11 -10z"/>
<path d="M5534 2213 c3 -10 12 -76 21 -148 9 -71 36 -281 60 -465 62 -482 60
-453 33 -447 -13 2 -123 30 -246 61 -123 32 -228 56 -233 54 -6 -2 29 -14 78
-26 252 -64 409 -107 421 -115 19 -15 15 -40 -6 -35 -25 7 -43 -14 -25 -30 7
-7 13 -20 13 -30 0 -14 9 -17 46 -17 l46 0 -6 70 c-9 101 -89 698 -120 895 -3
19 -8 54 -10 78 -8 77 -17 106 -28 91 -6 -10 -8 -1 -6 29 3 40 -5 56 -15 30
-3 -8 -6 -6 -6 5 -1 9 -6 17 -12 17 -6 0 -8 -8 -5 -17z m23 -55 c-3 -7 -5 -2
-5 12 0 14 2 19 5 13 2 -7 2 -19 0 -25z m10 -70 c-3 -8 -6 -5 -6 6 -1 11 2 17
5 13 3 -3 4 -12 1 -19z m20 -10 c-3 -7 -5 -2 -5 12 0 14 2 19 5 13 2 -7 2 -19
0 -25z"/>
<path d="M5139 2027 c-1 -5 -2 -84 -1 -111 3 -47 20 -18 28 45 5 46 4 57 -10
62 -9 4 -16 5 -17 4z"/>
<path d="M4479 1883 c-43 -37 -59 -80 -58 -160 1 -70 10 -105 42 -159 41 -66
141 -103 190 -71 29 19 56 73 50 98 -8 27 -22 23 -29 -8 -11 -46 -43 -73 -85
-73 -30 0 -43 7 -67 35 -38 42 -46 81 -40 188 5 91 19 124 59 132 53 12 114
-42 133 -118 10 -43 24 -32 31 27 9 72 0 100 -30 92 -15 -4 -41 3 -71 19 -60
32 -85 31 -125 -2z"/>
<path d="M990 1776 c0 -10 18 -20 53 -30 28 -8 187 -53 352 -100 559 -158 660
-186 673 -186 7 0 10 -5 6 -12 -4 -6 -3 -8 4 -4 11 7 34 1 282 -68 91 -26 230
-65 310 -87 80 -23 181 -52 225 -65 44 -13 123 -35 175 -48 166 -44 221 -62
215 -68 -4 -4 2 -4 14 -1 12 3 21 1 21 -5 0 -6 10 -8 22 -4 11 3 19 1 16 -4
-3 -5 10 -10 30 -11 20 -1 38 -6 40 -12 2 -5 9 -8 15 -6 19 7 169 -40 160 -50
-4 -4 -2 -5 5 -1 16 9 74 -3 67 -14 -3 -4 5 -6 17 -2 13 3 19 1 15 -5 -4 -6 3
-8 18 -5 15 2 25 0 25 -7 0 -7 4 -10 9 -7 7 5 285 -67 441 -114 232 -70 703
-199 728 -200 6 0 12 6 12 14 0 9 -39 24 -112 44 -62 17 -138 38 -168 46 -30
9 -118 33 -196 54 -77 21 -145 42 -151 45 -6 4 -27 9 -47 11 -20 3 -56 11 -79
19 -76 26 -153 47 -176 47 -14 0 -20 4 -15 12 5 7 3 8 -5 3 -7 -4 -23 -2 -34
4 -22 11 -110 36 -342 97 -71 19 -177 48 -235 65 -58 17 -127 37 -155 44 -138
39 -274 77 -304 85 -19 5 -39 6 -44 3 -6 -3 -7 -1 -3 5 5 8 -1 12 -15 12 -13
0 -36 4 -53 10 -48 16 -231 68 -336 96 -52 14 -156 43 -230 64 -74 21 -196 55
-270 75 -74 21 -173 48 -220 62 -47 14 -125 36 -175 50 -49 13 -119 32 -155
43 -36 10 -117 33 -180 50 -126 34 -193 53 -227 64 -17 5 -23 3 -23 -8z"/>
<path d="M5222 1601 c-7 -41 -10 -76 -8 -78 9 -10 27 74 24 112 -3 36 -4 32
-16 -34z"/>
<path d="M4894 637 c-12 -13 2 -87 17 -87 13 0 20 18 10 24 -5 4 -7 22 -4 41
6 35 -3 44 -23 22z"/>
</g>
</svg>
